<svg width="969" height="86" viewBox="0 0 969 86" fill="none" xmlns="http://www.w3.org/2000/svg">
<path d="M38.1857 85.4684C31.2043 85.4684 24.7871 83.8465 18.9341 80.6026C13.1516 77.3588 8.53261 72.8456 5.0772 67.0631C1.69231 61.21 -0.000136502 54.6518 -0.000136502 47.3884C-0.000136502 40.125 1.69231 33.602 5.0772 27.8195C8.53261 22.037 13.1516 17.5238 18.9341 14.2799C24.7871 11.0361 31.2043 9.41416 38.1857 9.41416C45.167 9.41416 51.5489 11.0361 57.3314 14.2799C63.1845 17.5238 67.7682 22.037 71.0826 27.8195C74.4675 33.602 76.1599 40.125 76.1599 47.3884C76.1599 54.6518 74.4675 61.21 71.0826 67.0631C67.6977 72.8456 63.114 77.3588 57.3314 80.6026C51.5489 83.8465 45.167 85.4684 38.1857 85.4684ZM38.1857 68.9671C44.1092 68.9671 48.834 66.9926 52.3599 63.0435C55.9563 59.0945 57.7546 53.8761 57.7546 47.3884C57.7546 40.8302 55.9563 35.6118 52.3599 31.7333C48.834 27.7842 44.1092 25.8097 38.1857 25.8097C32.1916 25.8097 27.3963 27.749 23.7999 31.6275C20.2739 35.506 18.511 40.7597 18.511 47.3884C18.511 53.9466 20.2739 59.2003 23.7999 63.1493C27.3963 67.0278 32.1916 68.9671 38.1857 68.9671ZM144.506 25.7039V84.728H126.418V76.6889C124.585 79.298 122.082 81.4136 118.908 83.0355C115.805 84.5869 112.35 85.3626 108.542 85.3626C104.029 85.3626 100.044 84.3754 96.5891 82.4009C93.1337 80.3558 90.454 77.4293 88.5499 73.6213C86.6459 69.8133 85.6939 65.3354 85.6939 60.1875V25.7039H103.676V57.7546C103.676 61.7037 104.699 64.7712 106.744 66.9573C108.789 69.1434 111.539 70.2364 114.994 70.2364C118.52 70.2364 121.306 69.1434 123.351 66.9573C125.396 64.7712 126.418 61.7037 126.418 57.7546V25.7039H144.506ZM175.587 35.5413C177.702 32.2974 180.347 29.7588 183.52 27.9253C186.694 26.0213 190.22 25.0693 194.098 25.0693V44.2151H189.126C184.613 44.2151 181.228 45.2023 178.972 47.1768C176.715 49.0808 175.587 52.4657 175.587 57.3315V84.728H157.499V25.7039H175.587V35.5413Z" fill="url(#paint0_linear_102_691)"/>
<path d="M309.253 10.4719V84.728H291.165V40.1955L274.558 84.728H259.96L243.248 40.0897V84.728H225.16V10.4719H246.527L267.365 61.88L287.992 10.4719H309.253ZM318.664 55.1102C318.664 49.0456 319.792 43.7214 322.049 39.1377C324.376 34.554 327.514 31.0281 331.463 28.5599C335.412 26.0918 339.819 24.8577 344.685 24.8577C348.846 24.8577 352.477 25.7039 355.58 27.3964C358.754 29.0888 361.186 31.3102 362.879 34.0604V25.7039H380.967V84.728H362.879V76.3715C361.116 79.1218 358.648 81.3431 355.474 83.0355C352.372 84.728 348.74 85.5742 344.579 85.5742C339.784 85.5742 335.412 84.3401 331.463 81.872C327.514 79.3333 324.376 75.7721 322.049 71.1884C319.792 66.5342 318.664 61.1748 318.664 55.1102ZM362.879 55.216C362.879 50.7028 361.61 47.1416 359.071 44.5324C356.603 41.9232 353.57 40.6186 349.974 40.6186C346.378 40.6186 343.31 41.9232 340.771 44.5324C338.303 47.0711 337.069 50.597 337.069 55.1102C337.069 59.6234 338.303 63.2198 340.771 65.8995C343.31 68.5087 346.378 69.8133 349.974 69.8133C353.57 69.8133 356.603 68.5087 359.071 65.8995C361.61 63.2903 362.879 59.7291 362.879 55.216ZM403.15 19.5688C399.976 19.5688 397.367 18.6521 395.322 16.8186C393.348 14.9146 392.36 12.5875 392.36 9.83728C392.36 7.01653 393.348 4.68942 395.322 2.85593C397.367 0.951933 399.976 -6.74199e-05 403.15 -6.74199e-05C406.253 -6.74199e-05 408.791 0.951933 410.766 2.85593C412.811 4.68942 413.833 7.01653 413.833 9.83728C413.833 12.5875 412.811 14.9146 410.766 16.8186C408.791 18.6521 406.253 19.5688 403.15 19.5688ZM412.141 25.7039V84.728H394.053V25.7039H412.141ZM461.213 25.0693C468.124 25.0693 473.625 27.3259 477.715 31.8391C481.875 36.2817 483.956 42.4168 483.956 50.2444V84.728H465.973V52.6773C465.973 48.7283 464.951 45.6607 462.906 43.4746C460.861 41.2885 458.111 40.1955 454.655 40.1955C451.2 40.1955 448.45 41.2885 446.405 43.4746C444.36 45.6607 443.337 48.7283 443.337 52.6773V84.728H425.249V25.7039H443.337V33.5315C445.171 30.9223 447.639 28.8773 450.741 27.3964C453.844 25.845 457.335 25.0693 461.213 25.0693ZM545.808 85.4684C540.379 85.4684 535.513 84.5869 531.211 82.824C526.91 81.061 523.454 78.4518 520.845 74.9964C518.306 71.541 516.966 67.3804 516.825 62.5146H536.077C536.359 65.2649 537.311 67.3804 538.933 68.8613C540.555 70.2717 542.67 70.9769 545.28 70.9769C547.959 70.9769 550.075 70.3775 551.626 69.1786C553.178 67.9093 553.953 66.1816 553.953 63.9955C553.953 62.162 553.319 60.6459 552.049 59.4471C550.851 58.2483 549.334 57.261 547.501 56.4853C545.738 55.7096 543.199 54.8281 539.885 53.8408C535.09 52.36 531.176 50.8791 528.144 49.3982C525.111 47.9173 522.502 45.7312 520.316 42.84C518.13 39.9487 517.037 36.176 517.037 31.5217C517.037 24.6109 519.54 19.2162 524.547 15.3377C529.554 11.3887 536.077 9.41416 544.116 9.41416C552.296 9.41416 558.89 11.3887 563.896 15.3377C568.903 19.2162 571.583 24.6462 571.936 31.6275H552.367C552.226 29.2299 551.344 27.3611 549.722 26.0213C548.1 24.6109 546.02 23.9057 543.481 23.9057C541.295 23.9057 539.532 24.5051 538.192 25.7039C536.853 26.8322 536.183 28.4894 536.183 30.6755C536.183 33.0731 537.311 34.9419 539.568 36.2817C541.824 37.6216 545.35 39.0672 550.145 40.6186C554.941 42.2405 558.819 43.792 561.781 45.2728C564.813 46.7537 567.422 48.9046 569.608 51.7253C571.795 54.546 572.888 58.1777 572.888 62.6204C572.888 66.8515 571.795 70.6948 569.608 74.1502C567.493 77.6056 564.39 80.3558 560.3 82.4009C556.21 84.4459 551.379 85.4684 545.808 85.4684ZM639.658 54.264C639.658 55.9564 639.552 57.7194 639.341 59.5529H598.405C598.687 63.2198 599.85 66.0406 601.896 68.0151C604.011 69.9191 606.585 70.8711 609.617 70.8711C614.13 70.8711 617.269 68.9671 619.032 65.1591H638.283C637.296 69.0376 635.498 72.5283 632.888 75.6311C630.35 78.7339 627.141 81.1668 623.263 82.9298C619.384 84.6927 615.047 85.5742 610.252 85.5742C604.469 85.5742 599.322 84.3401 594.808 81.872C590.295 79.4038 586.769 75.8779 584.231 71.2942C581.692 66.7105 580.423 61.3511 580.423 55.216C580.423 49.0808 581.657 43.7214 584.125 39.1377C586.664 34.554 590.189 31.0281 594.703 28.5599C599.216 26.0918 604.399 24.8577 610.252 24.8577C615.964 24.8577 621.041 26.0565 625.484 28.4542C629.927 30.8518 633.382 34.272 635.85 38.7146C638.389 43.1573 639.658 48.3404 639.658 54.264ZM621.147 49.504C621.147 46.4011 620.089 43.933 617.974 42.0995C615.858 40.266 613.214 39.3493 610.04 39.3493C607.008 39.3493 604.434 40.2308 602.319 41.9937C600.274 43.7567 599.004 46.2601 598.511 49.504H621.147ZM667.288 35.5413C669.404 32.2974 672.048 29.7588 675.222 27.9253C678.395 26.0213 681.921 25.0693 685.8 25.0693V44.2151H680.828C676.315 44.2151 672.93 45.2023 670.673 47.1768C668.417 49.0808 667.288 52.4657 667.288 57.3315V84.728H649.2V25.7039H667.288V35.5413ZM720.996 67.8035L733.795 25.7039H753.046L732.102 84.728H709.783L688.839 25.7039H708.196L720.996 67.8035ZM769.757 19.5688C766.583 19.5688 763.974 18.6521 761.929 16.8186C759.955 14.9146 758.967 12.5875 758.967 9.83728C758.967 7.01653 759.955 4.68942 761.929 2.85593C763.974 0.951933 766.583 -6.74199e-05 769.757 -6.74199e-05C772.859 -6.74199e-05 775.398 0.951933 777.373 2.85593C779.418 4.68942 780.44 7.01653 780.44 9.83728C780.44 12.5875 779.418 14.9146 777.373 16.8186C775.398 18.6521 772.859 19.5688 769.757 19.5688ZM778.748 25.7039V84.728H760.66V25.7039H778.748ZM788.259 55.216C788.259 49.0808 789.494 43.7214 791.962 39.1377C794.5 34.554 797.991 31.0281 802.434 28.5599C806.947 26.0918 812.095 24.8577 817.877 24.8577C825.282 24.8577 831.452 26.797 836.388 30.6755C841.395 34.554 844.674 40.0192 846.226 47.0711H826.974C825.352 42.5579 822.214 40.3013 817.56 40.3013C814.246 40.3013 811.601 41.6059 809.627 44.2151C807.652 46.7537 806.665 50.4207 806.665 55.216C806.665 60.0112 807.652 63.7134 809.627 66.3226C811.601 68.8613 814.246 70.1306 817.56 70.1306C822.214 70.1306 825.352 67.874 826.974 63.3609H846.226C844.674 70.2717 841.395 75.7016 836.388 79.6506C831.382 83.5997 825.211 85.5742 817.877 85.5742C812.095 85.5742 806.947 84.3401 802.434 81.872C797.991 79.4038 794.5 75.8779 791.962 71.2942C789.494 66.7105 788.259 61.3511 788.259 55.216ZM911.54 54.264C911.54 55.9564 911.434 57.7194 911.223 59.5529H870.287C870.569 63.2198 871.733 66.0406 873.778 68.0151C875.893 69.9191 878.467 70.8711 881.499 70.8711C886.013 70.8711 889.151 68.9671 890.914 65.1591H910.165C909.178 69.0376 907.38 72.5283 904.77 75.6311C902.232 78.7339 899.023 81.1668 895.145 82.9298C891.266 84.6927 886.929 85.5742 882.134 85.5742C876.352 85.5742 871.204 84.3401 866.69 81.872C862.177 79.4038 858.651 75.8779 856.113 71.2942C853.574 66.7105 852.305 61.3511 852.305 55.216C852.305 49.0808 853.539 43.7214 856.007 39.1377C858.546 34.554 862.071 31.0281 866.585 28.5599C871.098 26.0918 876.281 24.8577 882.134 24.8577C887.846 24.8577 892.923 26.0565 897.366 28.4542C901.809 30.8518 905.264 34.272 907.732 38.7146C910.271 43.1573 911.54 48.3404 911.54 54.264ZM893.029 49.504C893.029 46.4011 891.971 43.933 889.856 42.0995C887.74 40.266 885.096 39.3493 881.922 39.3493C878.89 39.3493 876.316 40.2308 874.201 41.9937C872.156 43.7567 870.886 46.2601 870.393 49.504H893.029ZM945.094 85.5742C939.946 85.5742 935.363 84.6927 931.343 82.9298C927.323 81.1668 924.15 78.7692 921.823 75.7369C919.496 72.634 918.191 69.1786 917.909 65.3706H935.786C935.997 67.4157 936.949 69.0729 938.642 70.3422C940.334 71.6115 942.414 72.2462 944.883 72.2462C947.139 72.2462 948.867 71.8231 950.066 70.9769C951.335 70.0601 951.97 68.8966 951.97 67.4862C951.97 65.7937 951.088 64.5597 949.325 63.784C947.562 62.9377 944.706 62.021 940.757 61.0337C936.526 60.0465 933 59.024 930.179 57.9662C927.359 56.8379 924.926 55.1102 922.881 52.7831C920.836 50.3854 919.813 47.1768 919.813 43.1573C919.813 39.7724 920.73 36.7048 922.563 33.9546C924.467 31.1339 927.218 28.9125 930.814 27.2906C934.481 25.6687 938.818 24.8577 943.825 24.8577C951.229 24.8577 957.047 26.6912 961.278 30.3582C965.58 34.0251 968.048 38.8909 968.683 44.9555H951.97C951.688 42.9105 950.771 41.2885 949.219 40.0897C947.739 38.8909 945.764 38.2915 943.296 38.2915C941.18 38.2915 939.558 38.7146 938.43 39.5608C937.302 40.3365 936.738 41.4296 936.738 42.84C936.738 44.5324 937.619 45.8017 939.382 46.648C941.216 47.4942 944.036 48.3404 947.844 49.1866C952.216 50.3149 955.778 51.4432 958.528 52.5715C961.278 53.6293 963.676 55.3923 965.721 57.8604C967.836 60.258 968.929 63.5019 969 67.592C969 71.0474 968.013 74.1502 966.038 76.9004C964.134 79.5801 961.349 81.6957 957.682 83.2471C954.085 84.7985 949.889 85.5742 945.094 85.5742Z" fill="url(#paint1_linear_102_691)"/>
<defs>
<linearGradient id="paint0_linear_102_691" x1="132.428" y1="21.9823" x2="297.603" y2="-249.446" gradientUnits="userSpaceOnUse">
<stop offset="0.510902" stop-color="white"/>
<stop offset="1" stop-color="#FF2727"/>
</linearGradient>
<linearGradient id="paint1_linear_102_691" x1="505.67" y1="33.9879" x2="315.597" y2="417.86" gradientUnits="userSpaceOnUse">
<stop stop-color="#F46E6E"/>
<stop offset="0.567377" stop-color="white"/>
</linearGradient>
</defs>
</svg>
