<svg width="480" height="362" viewBox="0 0 480 362" fill="none" xmlns="http://www.w3.org/2000/svg">
<g clip-path="url(#clip0_102_1326)">
<path d="M276.352 17.6186C280.465 26.3722 271.749 28.8517 261.764 33.5435C251.78 38.2353 244.308 43.3627 240.194 34.6092C236.081 25.8556 232.743 8.48135 246.868 1.84397C261.48 -5.02205 272.238 8.86506 276.352 17.6186Z" fill="#2F2E41"/>
<path d="M255.981 34.8334C263.404 34.8334 269.422 28.8154 269.422 21.392C269.422 13.9685 263.404 7.95063 255.981 7.95063C248.557 7.95063 242.539 13.9685 242.539 21.392C242.539 28.8154 248.557 34.8334 255.981 34.8334Z" fill="#FFB8B8"/>
<path d="M322.572 81.0016C322.107 80.3941 321.641 79.7976 321.171 79.2175C320.563 78.4623 319.952 77.7308 319.337 77.023C312.371 68.9837 304.961 63.9215 296.801 63.3797H296.79L296.67 63.3688L280.411 79.2175L274.883 84.6026L275.004 84.8981L277.986 92.3245H330.244C327.89 88.4167 325.329 84.637 322.572 81.0016Z" fill="#2F2E41"/>
<path d="M241.364 26.8035L246.175 24.5425L245.505 17.6014L248.723 23.3456L251.022 22.2649L250.631 18.2159L252.508 21.5667L269.596 13.5369C267.991 10.1215 265.095 7.48349 261.545 6.20328C257.995 4.92306 254.082 5.10549 250.667 6.71042L248.19 7.87416C244.775 9.4791 242.137 12.3751 240.857 15.925C239.577 19.4749 239.759 23.388 241.364 26.8035Z" fill="#2F2E41"/>
<path d="M352.726 270.786H72.068C69.674 270.783 67.3788 269.831 65.6859 268.138C63.9931 266.446 63.0409 264.15 63.0382 261.756V93.1149C63.0401 91.361 63.7377 89.6794 64.9779 88.4392C66.218 87.199 67.8995 86.5014 69.6534 86.4993H355.026C356.81 86.5014 358.521 87.2111 359.782 88.4727C361.044 89.7344 361.754 91.445 361.756 93.2292V261.756C361.753 264.15 360.801 266.446 359.108 268.138C357.415 269.831 355.12 270.783 352.726 270.786Z" fill="#F2F2F2"/>
<path d="M80.8238 261.756H343.969C346.292 261.756 348.519 260.834 350.161 259.192C351.803 257.55 352.726 255.322 352.726 253V109.864C352.726 107.542 351.803 105.315 350.161 103.673C348.519 102.031 346.292 101.108 343.969 101.108H80.8238C78.5016 101.108 76.2744 102.031 74.6323 103.673C72.9901 105.315 72.0676 107.542 72.0676 109.864V253C72.0676 255.322 72.9901 257.55 74.6323 259.192C76.2744 260.834 78.5016 261.756 80.8238 261.756Z" fill="white"/>
<path d="M361.63 92.5984H62.9111V88.0012C62.9146 85.5992 63.8707 83.2966 65.5697 81.5987C67.2687 79.9007 69.5718 78.9461 71.9738 78.9441H352.567C354.969 78.946 357.272 79.9007 358.971 81.5987C360.67 83.2966 361.626 85.5992 361.63 88.0012V92.5984Z" fill="#F79F9F"/>
<path d="M79.3815 88.129C80.6762 88.129 81.7257 87.0795 81.7257 85.7849C81.7257 84.4902 80.6762 83.4407 79.3815 83.4407C78.0869 83.4407 77.0374 84.4902 77.0374 85.7849C77.0374 87.0795 78.0869 88.129 79.3815 88.129Z" fill="white"/>
<path d="M88.279 88.129C89.5737 88.129 90.6232 87.0795 90.6232 85.7849C90.6232 84.4902 89.5737 83.4407 88.279 83.4407C86.9844 83.4407 85.9349 84.4902 85.9349 85.7849C85.9349 87.0795 86.9844 88.129 88.279 88.129Z" fill="white"/>
<path d="M97.177 88.129C98.4717 88.129 99.5212 87.0795 99.5212 85.7849C99.5212 84.4902 98.4717 83.4407 97.177 83.4407C95.8824 83.4407 94.8329 84.4902 94.8329 85.7849C94.8329 87.0795 95.8824 88.129 97.177 88.129Z" fill="white"/>
<path d="M220.608 230.715H197.075C195.697 230.713 194.375 230.165 193.401 229.19C192.426 228.216 191.878 226.894 191.876 225.516V201.984C191.878 200.605 192.426 199.284 193.401 198.309C194.375 197.334 195.697 196.786 197.075 196.785H220.608C221.986 196.786 223.307 197.334 224.282 198.309C225.257 199.284 225.805 200.605 225.807 201.984V225.516C225.805 226.894 225.257 228.216 224.282 229.19C223.307 230.165 221.986 230.713 220.608 230.715ZM197.075 197.879C195.987 197.88 194.944 198.313 194.174 199.083C193.405 199.852 192.972 200.895 192.971 201.984V225.516C192.972 226.604 193.405 227.647 194.174 228.417C194.944 229.186 195.987 229.619 197.075 229.62H220.608C221.696 229.619 222.739 229.186 223.508 228.417C224.278 227.647 224.711 226.604 224.712 225.516V201.984C224.711 200.895 224.278 199.852 223.508 199.083C222.739 198.313 221.696 197.88 220.608 197.879H197.075Z" fill="#CCCCCC"/>
<path d="M215.956 224.148H201.727C201.292 224.147 200.874 223.974 200.567 223.666C200.259 223.359 200.086 222.941 200.085 222.506V204.993C200.086 204.558 200.259 204.141 200.567 203.833C200.874 203.525 201.292 203.352 201.727 203.352H212.037C212.411 203.352 212.774 203.48 213.066 203.714L216.984 206.863C217.176 207.016 217.331 207.211 217.437 207.432C217.543 207.654 217.598 207.897 217.598 208.142V222.506C217.597 222.941 217.424 223.359 217.116 223.666C216.808 223.974 216.391 224.147 215.956 224.148ZM201.727 204.446C201.582 204.446 201.443 204.504 201.34 204.607C201.238 204.709 201.18 204.848 201.18 204.993V222.506C201.18 222.651 201.238 222.79 201.34 222.893C201.443 222.995 201.582 223.053 201.727 223.053H215.956C216.101 223.053 216.24 222.995 216.343 222.893C216.445 222.79 216.503 222.651 216.503 222.506V208.142C216.503 208.06 216.485 207.98 216.45 207.906C216.414 207.832 216.363 207.767 216.299 207.716L212.38 204.567C212.282 204.489 212.162 204.446 212.037 204.446H201.727Z" fill="#CCCCCC"/>
<path d="M213.22 211.014H204.463C204.318 211.014 204.179 210.956 204.076 210.853C203.974 210.751 203.916 210.611 203.916 210.466C203.916 210.321 203.974 210.182 204.076 210.079C204.179 209.977 204.318 209.919 204.463 209.919H213.22C213.365 209.919 213.504 209.977 213.607 210.079C213.709 210.182 213.767 210.321 213.767 210.466C213.767 210.611 213.709 210.751 213.607 210.853C213.504 210.956 213.365 211.014 213.22 211.014Z" fill="#CCCCCC"/>
<path d="M213.22 214.297H204.463C204.318 214.297 204.179 214.239 204.076 214.137C203.974 214.034 203.916 213.895 203.916 213.75C203.916 213.605 203.974 213.465 204.076 213.363C204.179 213.26 204.318 213.202 204.463 213.202H213.22C213.365 213.202 213.504 213.26 213.607 213.363C213.709 213.465 213.767 213.605 213.767 213.75C213.767 213.895 213.709 214.034 213.607 214.137C213.504 214.239 213.365 214.297 213.22 214.297Z" fill="#CCCCCC"/>
<path d="M213.22 217.581H204.463C204.318 217.581 204.179 217.523 204.076 217.42C203.974 217.318 203.916 217.178 203.916 217.033C203.916 216.888 203.974 216.749 204.076 216.646C204.179 216.544 204.318 216.486 204.463 216.486H213.22C213.365 216.486 213.504 216.544 213.607 216.646C213.709 216.749 213.767 216.888 213.767 217.033C213.767 217.178 213.709 217.318 213.607 217.42C213.504 217.523 213.365 217.581 213.22 217.581Z" fill="#CCCCCC"/>
<path d="M276.428 230.715H252.896C251.518 230.713 250.196 230.165 249.222 229.19C248.247 228.216 247.699 226.894 247.697 225.516V201.984C247.699 200.605 248.247 199.284 249.222 198.309C250.196 197.334 251.518 196.786 252.896 196.785H276.428C277.807 196.786 279.128 197.334 280.103 198.309C281.078 199.284 281.626 200.605 281.627 201.984V225.516C281.626 226.894 281.078 228.216 280.103 229.19C279.128 230.165 277.807 230.713 276.428 230.715ZM252.896 197.879C251.808 197.88 250.765 198.313 249.995 199.083C249.226 199.852 248.793 200.895 248.792 201.984V225.516C248.793 226.604 249.226 227.647 249.995 228.417C250.765 229.186 251.808 229.619 252.896 229.62H276.428C277.517 229.619 278.56 229.186 279.329 228.417C280.099 227.647 280.532 226.604 280.533 225.516V201.984C280.532 200.895 280.099 199.852 279.329 199.083C278.56 198.313 277.517 197.88 276.428 197.879H252.896Z" fill="#CCCCCC"/>
<path d="M272.324 219.77H257.001C256.566 219.769 256.148 219.596 255.84 219.288C255.533 218.98 255.36 218.563 255.359 218.128V209.372C255.36 208.936 255.533 208.519 255.84 208.211C256.148 207.903 256.566 207.73 257.001 207.73H272.324C272.76 207.73 273.177 207.903 273.485 208.211C273.792 208.519 273.966 208.936 273.966 209.372V218.128C273.966 218.563 273.792 218.98 273.485 219.288C273.177 219.596 272.76 219.769 272.324 219.77ZM257.001 208.824C256.856 208.824 256.717 208.882 256.614 208.985C256.511 209.087 256.454 209.227 256.454 209.372V218.128C256.454 218.273 256.511 218.412 256.614 218.515C256.717 218.617 256.856 218.675 257.001 218.675H272.324C272.469 218.675 272.608 218.617 272.711 218.515C272.814 218.412 272.871 218.273 272.872 218.128V209.372C272.871 209.227 272.814 209.087 272.711 208.985C272.608 208.882 272.469 208.824 272.324 208.824H257.001Z" fill="#CCCCCC"/>
<path d="M264.662 215.194C264.355 215.194 264.053 215.108 263.792 214.946L255.616 209.836C255.493 209.759 255.406 209.636 255.373 209.495C255.341 209.353 255.366 209.205 255.443 209.082C255.52 208.959 255.642 208.872 255.783 208.839C255.925 208.806 256.073 208.831 256.196 208.907L264.373 214.017C264.46 214.071 264.56 214.1 264.663 214.1C264.765 214.1 264.865 214.071 264.953 214.017L273.128 208.907C273.251 208.831 273.4 208.806 273.541 208.839C273.682 208.872 273.805 208.959 273.882 209.082C273.959 209.205 273.984 209.353 273.951 209.495C273.919 209.636 273.832 209.759 273.709 209.836L265.533 214.946C265.272 215.108 264.97 215.194 264.662 215.194Z" fill="#CCCCCC"/>
<path d="M164.787 230.715H141.254C139.876 230.713 138.555 230.165 137.58 229.19C136.605 228.216 136.057 226.894 136.055 225.516V201.984C136.057 200.605 136.605 199.284 137.58 198.309C138.555 197.334 139.876 196.786 141.254 196.785H164.787C166.165 196.786 167.487 197.334 168.461 198.309C169.436 199.284 169.984 200.605 169.986 201.984V225.516C169.984 226.894 169.436 228.216 168.461 229.19C167.487 230.165 166.165 230.713 164.787 230.715ZM141.254 197.879C140.166 197.88 139.123 198.313 138.353 199.083C137.584 199.852 137.151 200.895 137.15 201.984V225.516C137.151 226.604 137.584 227.647 138.353 228.417C139.123 229.186 140.166 229.619 141.254 229.62H164.787C165.875 229.619 166.918 229.186 167.688 228.417C168.457 227.647 168.89 226.604 168.891 225.516V201.984C168.89 200.895 168.457 199.852 167.688 199.083C166.918 198.313 165.875 197.88 164.787 197.879H141.254Z" fill="#CCCCCC"/>
<path d="M160.682 219.77H145.359C144.923 219.769 144.506 219.596 144.198 219.288C143.891 218.98 143.717 218.563 143.717 218.128V209.372C143.717 208.936 143.891 208.519 144.198 208.211C144.506 207.903 144.923 207.73 145.359 207.73H160.682C161.117 207.73 161.535 207.903 161.842 208.211C162.15 208.519 162.323 208.936 162.324 209.372V218.128C162.323 218.563 162.15 218.98 161.842 219.288C161.535 219.596 161.117 219.769 160.682 219.77ZM145.359 208.824C145.214 208.824 145.075 208.882 144.972 208.985C144.869 209.087 144.812 209.227 144.811 209.372V218.128C144.812 218.273 144.869 218.412 144.972 218.515C145.075 218.617 145.214 218.675 145.359 218.675H160.682C160.827 218.675 160.966 218.617 161.069 218.515C161.172 218.412 161.229 218.273 161.229 218.128V209.372C161.229 209.227 161.172 209.087 161.069 208.985C160.966 208.882 160.827 208.824 160.682 208.824H145.359Z" fill="#CCCCCC"/>
<path d="M158.254 219.77H147.24C147.048 219.77 146.86 219.719 146.693 219.623C146.527 219.527 146.388 219.389 146.292 219.222C146.196 219.056 146.146 218.867 146.146 218.675C146.146 218.483 146.196 218.294 146.293 218.128L149.61 212.382C149.706 212.215 149.844 212.077 150.011 211.981C150.177 211.885 150.366 211.834 150.558 211.834C150.75 211.834 150.939 211.885 151.105 211.981C151.272 212.077 151.41 212.215 151.506 212.382L153.648 216.093L154.89 213.943C154.986 213.776 155.124 213.638 155.29 213.542C155.457 213.446 155.645 213.395 155.838 213.395C156.03 213.395 156.218 213.446 156.385 213.542C156.551 213.638 156.689 213.776 156.785 213.943L159.202 218.128C159.298 218.294 159.348 218.483 159.348 218.675C159.348 218.867 159.298 219.056 159.202 219.222C159.105 219.389 158.967 219.527 158.801 219.623C158.634 219.719 158.446 219.77 158.254 219.77ZM158.254 218.675L155.837 214.49L154.122 217.461C154.074 217.544 154.005 217.613 153.922 217.661C153.839 217.709 153.744 217.734 153.648 217.734C153.552 217.734 153.458 217.709 153.375 217.661C153.291 217.613 153.222 217.544 153.174 217.461L150.558 212.929L147.24 218.675H158.254Z" fill="#CCCCCC"/>
<path d="M159.04 212.108C159.645 212.108 160.135 211.618 160.135 211.013C160.135 210.409 159.645 209.919 159.04 209.919C158.436 209.919 157.946 210.409 157.946 211.013C157.946 211.618 158.436 212.108 159.04 212.108Z" fill="#CCCCCC"/>
<path d="M420.75 354.709L414.04 354.709L410.849 328.83L420.751 328.83L420.75 354.709Z" fill="#FFB8B8"/>
<path d="M422.461 361.212L400.827 361.212V360.938C400.827 359.832 401.045 358.737 401.468 357.716C401.891 356.694 402.511 355.766 403.293 354.984C404.075 354.202 405.004 353.582 406.025 353.159C407.047 352.735 408.142 352.518 409.247 352.518H409.248L422.461 352.518L422.461 361.212Z" fill="#2F2E41"/>
<path d="M448.113 354.709L441.403 354.709L438.212 328.83L448.114 328.83L448.113 354.709Z" fill="#FFB8B8"/>
<path d="M449.824 361.212L428.19 361.212V360.938C428.19 359.832 428.408 358.737 428.831 357.716C429.254 356.694 429.874 355.766 430.656 354.984C431.438 354.202 432.367 353.582 433.388 353.159C434.41 352.735 435.505 352.518 436.611 352.518H436.611L449.824 352.518L449.824 361.212Z" fill="#2F2E41"/>
<path d="M446.102 343.49L439.888 341.6C439.424 341.46 439.013 341.186 438.705 340.813C438.397 340.44 438.205 339.984 438.155 339.502L432.362 284.598C432.357 284.531 432.328 284.469 432.279 284.424C432.231 284.378 432.166 284.353 432.1 284.353C432.033 284.346 431.967 284.366 431.915 284.408C431.863 284.45 431.829 284.51 431.821 284.577L422.117 337.77C422.058 338.093 421.935 338.401 421.756 338.675C421.576 338.95 421.344 339.186 421.072 339.37C420.8 339.553 420.494 339.68 420.172 339.744C419.85 339.808 419.519 339.806 419.198 339.74L411.256 338.104C410.674 337.982 410.155 337.655 409.795 337.181C409.434 336.707 409.257 336.119 409.296 335.526L415.198 248.34L455.224 244.021L449.276 341.284C449.238 341.91 448.963 342.497 448.507 342.926C448.051 343.356 447.449 343.596 446.822 343.598C446.578 343.598 446.335 343.562 446.102 343.49Z" fill="#2F2E41"/>
<path d="M446.064 172.414C453.488 172.414 459.505 166.396 459.505 158.973C459.505 151.549 453.488 145.532 446.064 145.532C438.641 145.532 432.623 151.549 432.623 158.973C432.623 166.396 438.641 172.414 446.064 172.414Z" fill="#FFB8B8"/>
<path d="M415.137 248.852L423.815 194.207C424.277 191.301 425.352 188.527 426.968 186.07C428.585 183.612 430.707 181.527 433.192 179.953C435.678 178.379 438.47 177.353 441.383 176.942C444.296 176.531 447.263 176.745 450.087 177.57C455.024 178.998 459.251 182.215 461.943 186.593C464.635 190.971 465.598 196.196 464.645 201.246L455.565 250.047L415.137 248.852Z" fill="#F79F9F"/>
<path d="M449.774 258.629C450.445 258.186 451.011 257.6 451.432 256.915C451.853 256.229 452.118 255.459 452.209 254.66C452.301 253.861 452.215 253.051 451.96 252.288C451.704 251.525 451.284 250.828 450.73 250.245L459.703 232.868L449.598 233.947L442.626 250.282C441.709 251.279 441.188 252.577 441.163 253.931C441.139 255.285 441.612 256.602 442.493 257.63C443.374 258.659 444.602 259.329 445.944 259.513C447.286 259.697 448.649 259.383 449.774 258.629Z" fill="#FFB8B8"/>
<path d="M451.696 247.18C451.2 247.11 450.737 246.89 450.368 246.55L446.935 243.378C446.564 243.034 446.308 242.584 446.201 242.089C446.094 241.594 446.142 241.079 446.338 240.612L453.199 224.348L452.226 192.213C452.365 191.18 452.708 190.185 453.232 189.284C453.757 188.383 454.454 187.595 455.284 186.964C456.114 186.333 457.06 185.871 458.068 185.606C459.076 185.34 460.127 185.276 461.159 185.417C462.192 185.558 463.187 185.901 464.087 186.427C464.988 186.953 465.776 187.651 466.406 188.481C467.036 189.311 467.497 190.257 467.761 191.266C468.026 192.274 468.089 193.325 467.947 194.358L469.611 214.558C470.117 220.689 468.379 226.795 464.72 231.741L454.02 246.206C453.814 246.484 453.552 246.716 453.25 246.886C452.949 247.056 452.615 247.161 452.271 247.193C452.08 247.212 451.887 247.207 451.696 247.18Z" fill="#F79F9F"/>
<path d="M368.659 151.65C368.806 152.441 369.124 153.19 369.591 153.845C370.059 154.5 370.664 155.044 371.365 155.44C372.065 155.835 372.844 156.072 373.646 156.134C374.448 156.197 375.254 156.082 376.007 155.799L388.51 170.837L391.457 161.111L379.132 148.322C378.573 147.088 377.58 146.103 376.343 145.552C375.105 145.001 373.709 144.924 372.418 145.334C371.127 145.744 370.031 146.614 369.338 147.778C368.646 148.942 368.404 150.319 368.659 151.65Z" fill="#FFB8B8"/>
<path d="M378.453 157.883C378.711 157.453 379.094 157.112 379.55 156.906L383.81 154.981C384.272 154.774 384.786 154.713 385.283 154.808C385.781 154.902 386.237 155.147 386.59 155.509L398.892 168.169L428.863 179.802C429.76 180.333 430.544 181.036 431.169 181.871C431.794 182.705 432.248 183.655 432.506 184.665C432.764 185.675 432.82 186.726 432.671 187.758C432.523 188.79 432.172 189.783 431.639 190.679C431.107 191.575 430.403 192.358 429.568 192.982C428.733 193.606 427.782 194.059 426.772 194.316C425.761 194.573 424.71 194.628 423.678 194.478C422.647 194.328 421.655 193.976 420.759 193.443L401.508 187.099C395.665 185.174 390.72 181.193 387.592 175.895L378.444 160.402C378.268 160.104 378.157 159.773 378.118 159.429C378.079 159.085 378.112 158.737 378.216 158.407C378.274 158.224 378.354 158.048 378.453 157.883Z" fill="#F79F9F"/>
<path opacity="0.1" d="M456.966 205.581L456.419 223.093L446.337 240.612L454.755 221.089L456.966 205.581Z" fill="black"/>
<path d="M444.524 161.499C443.68 161.609 442.824 161.408 442.117 160.935C441.409 160.462 440.897 159.748 440.676 158.926C440.463 157.979 439.997 157.109 439.327 156.408C438.656 155.706 437.808 155.201 436.872 154.945C434.407 154.382 431.393 155.542 429.587 153.674C429.2 153.248 428.92 152.735 428.77 152.179C428.62 151.623 428.604 151.04 428.724 150.477C429.057 148.661 430.356 147.29 431.769 146.193C434.743 143.895 438.342 142.551 442.094 142.334C444.036 142.278 445.979 142.375 447.906 142.624C449.924 142.751 451.919 143.116 453.851 143.71C456.053 144.541 458.009 145.913 459.54 147.7C461.07 149.487 462.126 151.63 462.609 153.933C463.05 156.243 462.982 158.621 462.41 160.902C461.837 163.183 460.774 165.311 459.294 167.139C457.522 169.345 455.237 171.085 452.639 172.206C452.02 172.498 451.31 172.534 450.665 172.306C449.047 171.662 449.311 169.658 450.049 168.32C450.839 166.889 452.054 165.504 451.419 163.762C451.1 162.955 450.489 162.297 449.707 161.92C448.098 161.1 446.299 161.294 444.569 161.494L444.524 161.499Z" fill="#2F2E41"/>
<path d="M364.167 169.089H197.799C195.405 169.087 193.11 168.134 191.417 166.442C189.724 164.749 188.772 162.454 188.769 160.06V124.487C188.772 122.093 189.724 119.798 191.417 118.105C193.11 116.412 195.405 115.46 197.799 115.458H364.167C366.561 115.46 368.857 116.413 370.549 118.105C372.242 119.798 373.195 122.093 373.197 124.487V160.06C373.195 162.454 372.242 164.749 370.549 166.442C368.857 168.134 366.561 169.087 364.167 169.089Z" fill="white"/>
<path d="M364.167 169.363H197.799C195.333 169.36 192.968 168.379 191.224 166.635C189.48 164.891 188.499 162.526 188.496 160.06V124.488C188.499 122.021 189.48 119.656 191.224 117.912C192.968 116.168 195.333 115.187 197.799 115.184H364.167C366.634 115.187 368.999 116.168 370.743 117.912C372.487 119.656 373.468 122.021 373.471 124.488V160.06C373.468 162.526 372.487 164.891 370.743 166.635C368.999 168.379 366.634 169.36 364.167 169.363ZM197.799 116.279C195.623 116.281 193.536 117.147 191.997 118.686C190.458 120.225 189.593 122.311 189.59 124.488V160.06C189.593 162.236 190.458 164.323 191.997 165.862C193.536 167.401 195.623 168.266 197.799 168.269H364.167C366.344 168.266 368.43 167.401 369.969 165.862C371.508 164.323 372.374 162.236 372.376 160.06V124.488C372.374 122.311 371.508 120.225 369.969 118.686C368.43 117.147 366.344 116.281 364.167 116.279H197.799Z" fill="#3F3D56"/>
<path d="M343.919 160.333H218.048C215.654 160.331 213.359 159.378 211.666 157.686C209.973 155.993 209.021 153.698 209.018 151.304V132.697C209.021 130.303 209.973 128.007 211.666 126.314C213.359 124.622 215.654 123.669 218.048 123.667H343.919C346.313 123.669 348.608 124.622 350.301 126.314C351.994 128.007 352.946 130.303 352.949 132.697V151.304C352.946 153.698 351.994 155.993 350.301 157.686C348.608 159.378 346.313 160.331 343.919 160.333Z" fill="#F2F2F2"/>
<path d="M245.135 150.304C251.099 150.304 255.934 145.47 255.934 139.506C255.934 133.542 251.099 128.707 245.135 128.707C239.171 128.707 234.336 133.542 234.336 139.506C234.336 145.47 239.171 150.304 245.135 150.304Z" fill="#FF6584"/>
<path d="M336.096 159.244L320.854 146.46L305.874 133.896C305.479 133.565 304.979 133.384 304.463 133.385C303.947 133.386 303.448 133.569 303.054 133.902L288.123 146.523L284.476 149.606L278.977 144.994L262.265 130.978C261.87 130.646 261.37 130.465 260.854 130.466C260.339 130.467 259.84 130.65 259.446 130.983L242.788 145.063L225.868 159.365C225.782 159.438 225.721 159.535 225.692 159.643C225.664 159.752 225.669 159.866 225.708 159.972C225.746 160.077 225.816 160.168 225.909 160.232C226.001 160.296 226.11 160.331 226.223 160.33L260.912 160.264L271.892 160.242L271.785 160.333L304.515 160.27L335.746 160.21C335.858 160.21 335.968 160.175 336.059 160.111C336.151 160.046 336.221 159.955 336.259 159.849C336.298 159.744 336.303 159.629 336.273 159.521C336.244 159.412 336.182 159.316 336.096 159.244Z" fill="#3F3D56"/>
<path d="M479.005 362H373.93C373.785 362 373.646 361.942 373.543 361.84C373.441 361.737 373.383 361.598 373.383 361.453C373.383 361.308 373.441 361.168 373.543 361.066C373.646 360.963 373.785 360.906 373.93 360.906H479.005C479.15 360.906 479.289 360.963 479.392 361.066C479.494 361.168 479.552 361.308 479.552 361.453C479.552 361.598 479.494 361.737 479.392 361.84C479.289 361.942 479.15 362 479.005 362Z" fill="#CCCCCC"/>
<path d="M330.578 72.1909C330.141 71.4806 329.563 70.8668 328.881 70.387C328.199 69.9071 327.426 69.5712 326.61 69.3998C326.311 69.337 326.007 69.2985 325.702 69.2849L284.006 32.0053C283.186 31.1635 282.094 30.6415 280.924 30.5332C280.694 30.5067 280.461 30.4993 280.229 30.5113C279.267 30.555 278.339 30.8781 277.558 31.441C276.776 32.004 276.176 32.7824 275.83 33.6811C275.484 34.5798 275.407 35.5599 275.609 36.5015C275.811 37.443 276.283 38.3053 276.968 38.9829L292.931 52.8998L319.145 75.7481C319.167 76.1784 319.231 76.6056 319.337 77.0232C319.651 78.2332 320.325 79.3192 321.27 80.1372C322.215 80.9553 323.386 81.4668 324.629 81.6038C325.762 81.7362 326.91 81.5465 327.94 81.0566C328.757 80.6745 329.481 80.12 330.063 79.4312C330.123 79.36 330.178 79.2944 330.233 79.2178C330.998 78.2205 331.441 77.0137 331.503 75.7582C331.564 74.5027 331.242 73.2582 330.578 72.1909Z" fill="#FFB8B8"/>
<path d="M259.259 108.119L258.87 92.3247L258.542 79.2177L258.317 70.0456L257.874 52.1665C257.786 51.2092 257.422 50.2982 256.825 49.5446C256.228 48.7911 255.425 48.2275 254.513 47.9229C253.602 47.6182 252.621 47.5855 251.691 47.8289C250.761 48.0723 249.922 48.5811 249.276 49.2933C249.124 49.4561 248.987 49.6319 248.866 49.8187C248.192 50.7837 247.889 51.9592 248.012 53.1297L248.986 79.2177L249.474 92.3247L250.097 109.044C249.917 109.289 249.755 109.547 249.61 109.815C249.221 110.553 248.986 111.363 248.919 112.194C248.852 113.026 248.955 113.862 249.222 114.653C249.5 115.482 249.95 116.243 250.544 116.885C251.137 117.528 251.86 118.037 252.664 118.38C253.469 118.723 254.337 118.891 255.211 118.874C256.086 118.857 256.947 118.655 257.737 118.281C258.655 117.847 259.453 117.194 260.058 116.378C260.664 115.563 261.059 114.611 261.21 113.606C261.36 112.602 261.261 111.575 260.921 110.618C260.58 109.661 260.01 108.803 259.259 108.119Z" fill="#FFB8B8"/>
<path d="M296.801 63.3799L292.932 52.8998L286.671 35.9237C286.219 34.6885 285.495 33.571 284.553 32.6539C283.61 31.7368 282.473 31.0438 281.226 30.6262C281.127 30.5934 281.023 30.5605 280.925 30.5331C279.717 30.1665 278.444 30.0656 277.193 30.2376C275.942 30.4095 274.744 30.8501 273.679 31.5292L252.593 44.9043C250.662 46.1264 249.281 48.0513 248.743 50.2724C248.205 52.4935 248.551 54.8368 249.709 56.8073C252.346 61.367 255.219 65.7858 258.317 70.0456C260.775 73.3894 265.35 73.7451 266.143 79.2177H281.691L297.43 65.0874L296.801 63.3799Z" fill="#CCCCCC"/>
<path d="M55.3638 191.462C62.3673 191.462 68.0448 185.785 68.0448 178.781C68.0448 171.778 62.3673 166.1 55.3638 166.1C48.3602 166.1 42.6828 171.778 42.6828 178.781C42.6828 185.785 48.3602 191.462 55.3638 191.462Z" fill="#A0616A"/>
<path d="M86.4956 170.053C86.6206 170.152 86.7417 170.257 86.859 170.369C87.4415 170.918 87.9015 171.583 88.2089 172.322C88.5162 173.061 88.664 173.857 88.6424 174.657C88.6209 175.457 88.4305 176.243 88.0838 176.965C87.7372 177.686 87.242 178.326 86.6307 178.842C86.4882 178.962 86.3396 179.074 86.1854 179.178L87.0436 208.153C87.068 209.102 86.786 210.033 86.2393 210.808C85.6927 211.584 84.9106 212.162 84.009 212.458L83.9567 212.47L60.4306 214.975C59.791 215.043 59.1442 214.984 58.5277 214.8C57.9111 214.617 57.337 214.313 56.8385 213.907C56.3399 213.5 55.9269 212.999 55.6231 212.432C55.3193 211.865 55.1308 211.244 55.0686 210.604C55.0064 209.963 55.0716 209.317 55.2604 208.702C55.4493 208.088 55.7581 207.516 56.169 207.021C56.5799 206.526 57.0848 206.118 57.6545 205.819C58.2241 205.521 58.8474 205.338 59.4881 205.281L76.2586 203.804L79.1589 178.712C78.9692 178.544 78.7915 178.363 78.6272 178.17C77.7178 177.094 77.2409 175.718 77.289 174.31C77.3371 172.902 77.9068 171.562 78.8874 170.55C79.8681 169.538 81.1897 168.927 82.5957 168.835C84.0017 168.743 85.3916 169.177 86.4956 170.053Z" fill="#A0616A"/>
<path d="M76.2492 355.269H82.5794L85.5904 330.854H76.2481L76.2492 355.269Z" fill="#A0616A"/>
<path d="M74.6348 353.203L87.1004 353.202C88.1437 353.202 89.1772 353.408 90.141 353.807C91.1048 354.206 91.9806 354.791 92.7183 355.529C93.456 356.267 94.0411 357.143 94.4404 358.106C94.8396 359.07 95.0451 360.103 95.045 361.146V361.405L74.6352 361.405L74.6348 353.203Z" fill="#2F2E41"/>
<path d="M13.3345 346.518L18.7733 349.756L33.852 330.319L25.8247 325.539L13.3345 346.518Z" fill="#A0616A"/>
<path d="M13.0048 343.916L23.7156 350.293C24.612 350.827 25.3949 351.532 26.0188 352.368C26.6427 353.204 27.0958 354.155 27.3522 355.166C27.6086 356.178 27.6633 357.229 27.5132 358.262C27.3631 359.294 27.0112 360.287 26.4774 361.183L26.3454 361.405L8.80857 350.964L13.0048 343.916Z" fill="#2F2E41"/>
<path d="M84.0727 346.646H76.9847C76.4107 346.647 75.8568 346.435 75.4301 346.051C75.0034 345.667 74.7341 345.139 74.6744 344.568L67.5287 277.398C67.5106 277.229 67.4375 277.071 67.3205 276.948C67.2035 276.824 67.0491 276.743 66.8812 276.716C66.7133 276.689 66.5412 276.718 66.3915 276.798C66.2417 276.879 66.1227 277.007 66.0526 277.161L53.1616 305.706L30.3387 342.921C30.0434 343.399 29.586 343.753 29.0504 343.921C28.5149 344.088 27.9369 344.057 27.4224 343.833L18.3049 339.822C18.0034 339.689 17.7336 339.494 17.5133 339.249C17.2931 339.004 17.1274 338.715 17.0273 338.401C16.9271 338.087 16.8949 337.756 16.9326 337.428C16.9703 337.101 17.0772 336.786 17.246 336.503L38.2265 301.373L44.6611 271.774C42.6373 258.938 51.3131 239.854 51.401 239.663L51.444 239.569L75.3417 230.229L75.4615 230.376C84.8861 261.304 90.6289 294.587 86.3886 344.517C86.3363 345.096 86.0701 345.635 85.6419 346.029C85.2137 346.423 84.6542 346.643 84.0727 346.646Z" fill="#2F2E41"/>
<path d="M50.4813 242.697L50.37 242.463C50.3168 242.351 45.003 231.144 40.9067 219.165C40.1195 216.849 39.8219 214.394 40.0327 211.957C40.2436 209.519 40.9584 207.152 42.1318 205.006C43.3204 202.837 44.9466 200.938 46.9073 199.43C48.8679 197.923 51.1203 196.839 53.5218 196.247C57.6908 195.248 62.0801 195.779 65.89 197.745C69.6998 199.711 72.6767 202.98 74.2783 206.957C77.5275 215.082 76.492 223.755 75.5174 230.575L75.498 230.712L75.3737 230.771L50.4813 242.697Z" fill="#3F3D56"/>
<path d="M70.7393 171.618H50.6033V162.841C55.0229 161.085 59.3478 159.592 61.9621 162.841C64.2899 162.841 66.5224 163.766 68.1685 165.412C69.8145 167.058 70.7393 169.29 70.7393 171.618Z" fill="#2F2E41"/>
<path d="M49.4884 161.292C37.4507 161.292 34.0814 176.381 34.0814 184.893C34.0814 189.64 36.2283 191.338 39.6019 191.913L40.7934 185.558L43.5839 192.186C44.5316 192.191 45.5271 192.173 46.5592 192.153L47.5054 190.205L49.6152 192.118C58.0654 192.131 64.8952 193.363 64.8952 184.893C64.8952 176.381 61.9402 161.292 49.4884 161.292Z" fill="#2F2E41"/>
<path d="M105.622 362H0.547264C0.40212 362 0.262921 361.942 0.160289 361.84C0.0576576 361.737 0 361.598 0 361.453C0 361.308 0.0576576 361.168 0.160289 361.066C0.262921 360.963 0.40212 360.906 0.547264 360.906H105.622C105.767 360.906 105.906 360.963 106.009 361.066C106.112 361.168 106.169 361.308 106.169 361.453C106.169 361.598 106.112 361.737 106.009 361.84C105.906 361.942 105.767 362 105.622 362Z" fill="#CCCCCC"/>
<path d="M107.598 181.95H84.0656C82.6872 181.949 81.3658 181.4 80.3911 180.426C79.4164 179.451 78.8682 178.13 78.8666 176.751V153.219C78.8682 151.84 79.4164 150.519 80.3911 149.544C81.3658 148.57 82.6872 148.021 84.0656 148.02H107.598C108.976 148.021 110.298 148.57 111.272 149.544C112.247 150.519 112.795 151.84 112.797 153.219V176.751C112.795 178.13 112.247 179.451 111.272 180.426C110.298 181.4 108.976 181.949 107.598 181.95Z" fill="white"/>
<path d="M107.598 181.95H84.0656C82.6872 181.949 81.3658 181.4 80.3911 180.426C79.4164 179.451 78.8682 178.13 78.8666 176.751V153.219C78.8682 151.84 79.4164 150.519 80.3911 149.544C81.3658 148.57 82.6872 148.021 84.0656 148.02H107.598C108.976 148.021 110.298 148.57 111.272 149.544C112.247 150.519 112.795 151.84 112.797 153.219V176.751C112.795 178.13 112.247 179.451 111.272 180.426C110.298 181.4 108.976 181.949 107.598 181.95ZM84.0656 149.114C82.9774 149.116 81.9341 149.548 81.1647 150.318C80.3952 151.087 79.9623 152.131 79.9611 153.219V176.751C79.9623 177.839 80.3952 178.883 81.1647 179.652C81.9341 180.422 82.9774 180.854 84.0656 180.856H107.598C108.686 180.854 109.729 180.422 110.499 179.652C111.268 178.883 111.701 177.839 111.702 176.751V153.219C111.701 152.131 111.268 151.087 110.499 150.318C109.729 149.548 108.686 149.116 107.598 149.114H84.0656Z" fill="#3F3D56"/>
<path d="M103.493 172.373H88.17C87.7347 172.373 87.3174 172.199 87.0096 171.892C86.7018 171.584 86.5286 171.166 86.5282 170.731V159.239C86.5286 158.803 86.7018 158.386 87.0096 158.078C87.3174 157.77 87.7347 157.597 88.17 157.597H92.4837C92.7642 157.596 93.0404 157.667 93.2853 157.804C93.5303 157.941 93.7358 158.139 93.882 158.378L95.085 160.333H103.493C103.929 160.334 104.346 160.507 104.654 160.815C104.962 161.122 105.135 161.54 105.135 161.975V170.731C105.135 171.166 104.962 171.584 104.654 171.892C104.346 172.199 103.929 172.373 103.493 172.373Z" fill="#F79F9F"/>
<path d="M102.995 178.179C103.071 178.319 103.142 178.463 103.207 178.612C103.531 179.343 103.696 180.135 103.693 180.936C103.689 181.736 103.517 182.527 103.187 183.256C102.856 183.985 102.376 184.636 101.776 185.166C101.177 185.696 100.472 186.094 99.7082 186.333C99.5305 186.388 99.35 186.433 99.1675 186.469L88.7151 213.507C88.3695 214.39 87.7482 215.139 86.9435 215.642C86.1387 216.145 85.1933 216.374 84.2476 216.297L84.1951 216.287L61.5402 209.467C60.9242 209.282 60.3511 208.976 59.854 208.568C59.3568 208.16 58.9454 207.657 58.6436 207.089C58.3418 206.521 58.1555 205.899 58.0955 205.258C58.0355 204.618 58.103 203.972 58.2941 203.358C58.4852 202.743 58.796 202.173 59.2087 201.68C59.6214 201.186 60.1278 200.779 60.6986 200.483C61.2694 200.186 61.8933 200.006 62.5343 199.952C63.1753 199.897 63.8206 199.971 64.4331 200.167L80.4626 205.314L92.8726 183.313C92.7629 183.084 92.6694 182.849 92.5928 182.607C92.1724 181.262 92.2667 179.809 92.8575 178.53C93.4482 177.251 94.4932 176.237 95.7896 175.685C97.086 175.134 98.5411 175.083 99.8726 175.544C101.204 176.005 102.317 176.944 102.995 178.179Z" fill="#A0616A"/>
</g>
<defs>
<clipPath id="clip0_102_1326">
<rect width="479.128" height="361.68" fill="white" transform="scale(1.00088)"/>
</clipPath>
</defs>
</svg>
