<svg width="435" height="362" viewBox="0 0 435 362" fill="none" xmlns="http://www.w3.org/2000/svg">
<g clip-path="url(#clip0_102_1268)">
<path d="M286.169 0H159.765C140.105 0 124.168 15.9373 124.168 35.5969V324.443C124.168 344.103 140.105 360.04 159.765 360.04H286.169C305.828 360.04 321.766 344.103 321.766 324.443V35.5969C321.766 15.9373 305.828 0 286.169 0Z" fill="#3F3D56"/>
<path d="M318.432 35.5993V324.443C318.422 332.997 315.02 341.198 308.971 347.247C302.923 353.295 294.722 356.698 286.168 356.708H159.766C151.212 356.698 143.012 353.295 136.963 347.247C130.914 341.198 127.512 332.997 127.502 324.443V35.5993C127.512 27.0453 130.914 18.8446 136.963 12.796C143.012 6.74744 151.212 3.34499 159.766 3.33509H176.295V9.04482C176.296 11.6297 177.322 14.1087 179.15 15.9365C180.978 17.7643 183.457 18.7912 186.042 18.7914H259.893C262.477 18.7912 264.956 17.7643 266.784 15.9365C268.612 14.1087 269.639 11.6297 269.639 9.04482V3.33509H286.168C294.722 3.345 302.923 6.74744 308.971 12.796C315.02 18.8446 318.422 27.0453 318.432 35.5993Z" fill="url(#paint0_linear_102_1268)"/>
<path d="M123.259 73.0382C122.616 73.0374 122 72.7818 121.545 72.3272C121.091 71.8727 120.835 71.2565 120.834 70.6137V65.7646C120.834 65.1216 121.09 64.5049 121.544 64.0503C121.999 63.5956 122.616 63.3401 123.259 63.3401C123.902 63.3401 124.519 63.5956 124.973 64.0503C125.428 64.5049 125.683 65.1216 125.683 65.7646V70.6137C125.683 71.2565 125.427 71.8727 124.972 72.3272C124.518 72.7818 123.902 73.0374 123.259 73.0382Z" fill="#3F3D56"/>
<path d="M123.259 97.9029C122.616 97.9021 122 97.6465 121.545 97.1919C121.091 96.7374 120.835 96.1212 120.834 95.4784V82.1305C120.834 81.4875 121.09 80.8708 121.544 80.4161C121.999 79.9614 122.616 79.706 123.259 79.706C123.902 79.706 124.519 79.9614 124.973 80.4161C125.428 80.8708 125.683 81.4875 125.683 82.1305V95.4784C125.683 96.1212 125.427 96.7374 124.972 97.1919C124.518 97.6465 123.902 97.9021 123.259 97.9029Z" fill="#3F3D56"/>
<path d="M123.259 117.892C122.616 117.891 122 117.636 121.545 117.181C121.091 116.727 120.835 116.11 120.834 115.468V102.12C120.834 101.477 121.09 100.86 121.544 100.405C121.999 99.9508 122.616 99.6953 123.259 99.6953C123.902 99.6953 124.519 99.9508 124.973 100.405C125.428 100.86 125.683 101.477 125.683 102.12V115.468C125.683 116.11 125.427 116.727 124.972 117.181C124.518 117.636 123.902 117.891 123.259 117.892Z" fill="#3F3D56"/>
<path d="M322.069 106.982C321.426 106.981 320.81 106.725 320.355 106.271C319.901 105.816 319.645 105.2 319.644 104.557V71.9878C319.644 71.3448 319.9 70.7281 320.355 70.2734C320.809 69.8187 321.426 69.5633 322.069 69.5633C322.712 69.5633 323.329 69.8187 323.783 70.2734C324.238 70.7281 324.493 71.3448 324.493 71.9878V104.557C324.493 105.2 324.237 105.816 323.782 106.271C323.328 106.725 322.712 106.981 322.069 106.982Z" fill="#3F3D56"/>
<path d="M228.175 11.1198H209.385C208.983 11.1198 208.598 10.9602 208.314 10.676C208.03 10.3918 207.87 10.0064 207.87 9.6045C207.87 9.20262 208.03 8.81719 208.314 8.53302C208.598 8.24884 208.983 8.08918 209.385 8.08918H228.175C228.577 8.08918 228.963 8.24884 229.247 8.53302C229.531 8.81719 229.691 9.20262 229.691 9.6045C229.691 10.0064 229.531 10.3918 229.247 10.676C228.963 10.9602 228.577 11.1198 228.175 11.1198Z" fill="white"/>
<path d="M237.873 10.8169C238.543 10.8169 239.086 10.2742 239.086 9.60468C239.086 8.93516 238.543 8.39242 237.873 8.39242C237.204 8.39242 236.661 8.93516 236.661 9.60468C236.661 10.2742 237.204 10.8169 237.873 10.8169Z" fill="white"/>
<path d="M383.528 344.897C383.971 344.913 384.408 344.793 384.78 344.553C385.152 344.312 385.441 343.963 385.608 343.553C385.775 343.143 385.811 342.691 385.713 342.259C385.615 341.827 385.386 341.436 385.058 341.138C385.002 340.923 384.961 340.767 384.904 340.551C385.318 339.472 386.044 338.54 386.99 337.876C387.936 337.212 389.059 336.845 390.215 336.823C391.37 336.801 392.506 337.125 393.477 337.753C394.448 338.381 395.209 339.284 395.662 340.348C398.279 346.315 401.652 352.487 400.067 359.103C410.731 335.932 406.757 307.274 390.484 287.701C386.014 285.294 382.369 280.977 381.383 275.933C383.591 276.658 386.317 274.842 384.641 272.54C383.915 271.661 383.183 270.789 382.457 269.91C390.731 260.929 400.823 274.824 391.737 286.926C394.783 290.671 397.429 294.724 399.631 299.019C399.088 294.441 399.64 289.8 401.241 285.477C402.867 281.447 405.954 278.037 408.667 274.54C411.966 270.28 418.858 272.165 419.358 277.527C416.286 278.569 415.928 283.025 419.459 283.6C418.631 293.592 412.197 302.827 403.256 307.291C406.662 316.566 408.052 326.461 407.332 336.315C408.808 324.792 421.135 321.882 429.725 317.226C430.272 316.868 430.91 316.677 431.563 316.676C432.216 316.675 432.855 316.864 433.402 317.22C433.949 317.576 434.381 318.084 434.645 318.681C434.909 319.278 434.993 319.939 434.887 320.584C433.7 321.08 432.565 321.692 431.499 322.412C431 322.755 430.619 323.244 430.408 323.812C430.197 324.38 430.167 324.999 430.322 325.585C430.477 326.17 430.81 326.693 431.274 327.083C431.738 327.472 432.311 327.708 432.914 327.759C428.665 338.572 417.481 345.912 405.924 345.982C404.86 350.818 403.295 355.531 401.256 360.044L384.104 360.208C384.041 360.018 383.983 359.822 383.926 359.631C385.515 359.716 387.108 359.606 388.67 359.303C384.422 354.37 381.15 351.864 383.528 344.897Z" fill="#F2F2F2"/>
<path d="M51.519 344.897C51.0764 344.913 50.6395 344.793 50.2675 344.553C49.8956 344.312 49.6066 343.963 49.4396 343.553C49.2726 343.143 49.2358 342.691 49.3341 342.259C49.4324 341.827 49.6611 341.436 49.9892 341.138C50.0457 340.923 50.0863 340.767 50.1428 340.551C49.7296 339.472 49.0034 338.54 48.0574 337.876C47.1113 337.212 45.9883 336.845 44.8326 336.823C43.6768 336.801 42.5408 337.125 41.5702 337.753C40.5996 338.381 39.8387 339.284 39.3849 340.348C36.7678 346.315 33.3955 352.487 34.9804 359.103C24.3162 335.932 28.2908 307.274 44.5634 287.701C49.0328 285.294 52.6779 280.977 53.6641 275.933C51.4566 276.658 48.7303 274.842 50.4067 272.54C51.1323 271.661 51.8647 270.789 52.5902 269.91C44.3165 260.929 34.2242 274.824 43.3101 286.926C40.2645 290.671 37.6187 294.724 35.4159 299.019C35.9588 294.441 35.4071 289.8 33.8062 285.477C32.1805 281.447 29.0938 278.037 26.3802 274.54C23.0811 270.28 16.1894 272.165 15.6889 277.527C18.7612 278.569 19.1192 283.025 15.588 283.6C16.4163 293.592 22.8505 302.827 31.7909 307.291C28.3853 316.566 26.9957 326.461 27.7148 336.315C26.2389 324.792 13.9125 321.882 5.32179 317.226C4.77561 316.868 4.13715 316.677 3.48429 316.676C2.83143 316.675 2.19239 316.864 1.64513 317.22C1.09788 317.576 0.666052 318.084 0.402339 318.681C0.138627 319.278 0.0544228 319.939 0.160003 320.584C1.34708 321.08 2.48197 321.692 3.54794 322.412C4.04738 322.755 4.42859 323.244 4.63932 323.812C4.85004 324.38 4.87997 324.999 4.725 325.585C4.57002 326.17 4.23773 326.693 3.77368 327.083C3.30962 327.472 2.73651 327.708 2.13292 327.759C6.38254 338.572 17.5659 345.912 29.1229 345.982C30.1875 350.818 31.7519 355.531 33.7909 360.044L50.9434 360.208C51.0067 360.018 51.0639 359.822 51.121 359.631C49.5324 359.716 47.9394 359.606 46.3776 359.303C50.6254 354.37 53.8981 351.864 51.5195 344.898L51.519 344.897Z" fill="#F2F2F2"/>
<path d="M169.074 17.622H152.708C151.905 17.622 151.134 17.3027 150.565 16.7344C149.997 16.166 149.678 15.3952 149.678 14.5914C149.678 13.7876 149.997 13.0168 150.565 12.4484C151.134 11.8801 151.905 11.5608 152.708 11.5608H169.074C169.878 11.5608 170.648 11.8801 171.217 12.4484C171.785 13.0168 172.105 13.7876 172.105 14.5914C172.105 15.3952 171.785 16.166 171.217 16.7344C170.648 17.3027 169.878 17.622 169.074 17.622Z" fill="#E6E6E6"/>
<path d="M276.358 17.3189C277.865 17.3189 279.086 16.0977 279.086 14.5913C279.086 13.0849 277.865 11.8637 276.358 11.8637C274.852 11.8637 273.631 13.0849 273.631 14.5913C273.631 16.0977 274.852 17.3189 276.358 17.3189Z" fill="#E6E6E6"/>
<path d="M284.844 17.3189C286.351 17.3189 287.572 16.0977 287.572 14.5913C287.572 13.0849 286.351 11.8637 284.844 11.8637C283.338 11.8637 282.117 13.0849 282.117 14.5913C282.117 16.0977 283.338 17.3189 284.844 17.3189Z" fill="#E6E6E6"/>
<path d="M293.33 17.3189C294.836 17.3189 296.057 16.0977 296.057 14.5913C296.057 13.0849 294.836 11.8637 293.33 11.8637C291.823 11.8637 290.602 13.0849 290.602 14.5913C290.602 16.0977 291.823 17.3189 293.33 17.3189Z" fill="#E6E6E6"/>
<path d="M274.451 59.9809H171.591C169.599 59.9836 167.689 60.7764 166.28 62.1853C164.871 63.5942 164.078 65.5043 164.075 67.4969V134.359C164.078 136.351 164.871 138.261 166.28 139.67C167.689 141.079 169.599 141.872 171.591 141.875H274.451C276.444 141.873 278.355 141.081 279.764 139.672C281.173 138.262 281.965 136.352 281.967 134.359V67.4969C281.965 65.504 281.173 63.5933 279.764 62.1842C278.355 60.775 276.444 59.9826 274.451 59.9809Z" fill="#F2F2F2"/>
<path d="M242.249 88.5244C232.954 104.959 222.696 120.831 211.53 136.057H195.399C205.965 123.185 216.538 110.314 227.119 97.4426C230.154 93.7365 233.449 89.8539 238.002 88.348L242.249 88.5244Z" fill="#3F3D56"/>
<path d="M220.813 85.8889C219.13 87.6419 217.518 89.4656 216 91.3599C212.659 95.3836 209.365 99.4427 206.059 103.49C204 106.008 201.941 108.526 199.905 111.043C199.259 110.628 198.645 110.164 198.07 109.655C194.819 106.833 192.802 102.851 192.453 98.56C192.103 94.2694 193.448 90.0125 196.199 86.7015C198.95 83.3904 202.888 81.2886 207.17 80.8464C211.452 80.4042 215.737 81.6569 219.106 84.3359C219.714 84.8095 220.284 85.3287 220.813 85.8889Z" fill="#F79F9F"/>
<path d="M281.967 83.9775V86.4202L280.876 86.0201L265.523 80.4074C260.523 78.5829 255.534 76.4978 250.37 75.1825C245.877 73.8973 241.106 73.9584 236.647 75.3583C232.673 76.8287 229.036 79.0861 225.955 81.9954C224.591 83.2562 223.27 84.5472 221.991 85.8868C221.573 86.3292 221.155 86.7717 220.742 87.2142C219.506 88.5598 218.312 89.9357 217.178 91.3601C213.839 95.3848 210.541 99.4458 207.238 103.489C205.177 106.01 203.116 108.526 201.08 111.041C194.279 119.363 187.519 127.701 180.799 136.056C179.894 136.046 178.993 135.932 178.113 135.717C184.969 127.2 191.856 118.707 198.776 110.235C198.934 110.041 199.092 109.847 199.249 109.653C200.061 108.641 200.892 107.623 201.716 106.61C205.165 102.386 208.616 98.1649 212.069 93.9483C214.578 90.8813 217.069 87.8021 219.773 84.8927C219.936 84.7048 220.106 84.523 220.282 84.3351C220.542 84.0563 220.803 83.7835 221.07 83.4986C226.943 77.4313 234.271 72.067 243.048 71.9216C248.212 71.8428 253.201 73.4793 258.001 75.2068C263.171 77.0797 268.323 78.983 273.488 80.8741L281.967 83.9775Z" fill="#3F3D56"/>
<path d="M284.386 289.497H161.549C159.556 289.495 157.646 288.703 156.237 287.294C154.828 285.885 154.036 283.975 154.033 281.982V265.427C154.036 263.434 154.828 261.524 156.237 260.115C157.646 258.706 159.556 257.914 161.549 257.911H284.386C286.378 257.914 288.289 258.706 289.698 260.115C291.107 261.524 291.899 263.434 291.901 265.427V281.982C291.899 283.975 291.107 285.885 289.698 287.294C288.289 288.703 286.378 289.495 284.386 289.497Z" fill="#F2F2F2"/>
<path d="M284.386 204.64H161.549C159.556 204.638 157.646 203.845 156.237 202.436C154.828 201.027 154.036 199.117 154.033 197.125V180.57C154.036 178.577 154.828 176.667 156.237 175.258C157.646 173.849 159.556 173.056 161.549 173.054H284.386C286.378 173.056 288.289 173.849 289.698 175.258C291.107 176.667 291.899 178.577 291.901 180.57V197.125C291.899 199.117 291.107 201.027 289.698 202.436C288.289 203.845 286.378 204.638 284.386 204.64Z" fill="#F2F2F2"/>
<path d="M284.386 247.069H161.549C159.556 247.067 157.646 246.274 156.237 244.865C154.828 243.456 154.036 241.546 154.033 239.553V222.998C154.036 221.006 154.828 219.096 156.237 217.687C157.646 216.278 159.556 215.485 161.549 215.483H284.386C286.378 215.485 288.289 216.278 289.698 217.687C291.107 219.096 291.899 221.006 291.901 222.998V239.553C291.899 241.546 291.107 243.456 289.698 244.865C288.289 246.274 286.378 247.067 284.386 247.069Z" fill="#F2F2F2"/>
<path d="M237.891 270.872H201.698C201.269 270.872 200.857 270.701 200.553 270.398C200.25 270.094 200.079 269.682 200.079 269.253C200.079 268.823 200.25 268.411 200.553 268.108C200.857 267.804 201.269 267.634 201.698 267.634H237.891C238.321 267.634 238.732 267.804 239.036 268.108C239.34 268.411 239.51 268.823 239.51 269.253C239.51 269.682 239.34 270.094 239.036 270.398C238.732 270.701 238.321 270.872 237.891 270.872Z" fill="white"/>
<path d="M272.701 279.776H201.293C200.864 279.776 200.452 279.606 200.148 279.302C199.844 278.999 199.674 278.587 199.674 278.157C199.674 277.728 199.844 277.316 200.148 277.012C200.452 276.709 200.864 276.538 201.293 276.538H272.701C273.13 276.538 273.542 276.709 273.845 277.012C274.149 277.316 274.32 277.728 274.32 278.157C274.32 278.587 274.149 278.999 273.845 279.302C273.542 279.606 273.13 279.776 272.701 279.776Z" fill="white"/>
<path d="M182.47 284.56C188.465 284.56 193.325 279.7 193.325 273.705C193.325 267.71 188.465 262.849 182.47 262.849C176.474 262.849 171.614 267.71 171.614 273.705C171.614 279.7 176.474 284.56 182.47 284.56Z" fill="white"/>
<path d="M180.051 288.368C178.943 287.85 177.677 287.785 176.522 288.187C175.367 288.588 174.414 289.425 173.867 290.518C173.759 290.742 173.67 290.975 173.6 291.213L157.253 292.19L154.831 300.659L177.079 296.9C178.091 297.111 179.145 296.982 180.075 296.532C181.006 296.081 181.761 295.336 182.224 294.411C182.482 293.882 182.633 293.308 182.669 292.721C182.705 292.134 182.625 291.545 182.433 290.989C182.242 290.433 181.943 289.919 181.553 289.479C181.163 289.038 180.691 288.678 180.162 288.42C180.125 288.402 180.088 288.385 180.051 288.368Z" fill="#FFB6B6"/>
<path d="M143.969 246.594C142.892 246.153 141.732 245.949 140.569 245.997C139.407 246.044 138.267 246.341 137.23 246.868C136.192 247.395 135.28 248.139 134.555 249.05C133.831 249.961 133.311 251.017 133.031 252.147L128.537 270.296L129.383 302.048C129.383 302.048 152.841 306.549 156.779 303.656C160.717 300.762 160.347 298.608 160.717 300.762C161.087 302.916 162.777 303.82 162.801 302.963C162.824 302.106 163.015 302.253 163.997 301.994C164.978 301.736 169.309 300.14 169.309 300.14L169.503 291.087C169.503 291.087 162.343 288.373 160.606 289.183C158.868 289.993 160.975 291.337 158.868 289.993C156.761 288.649 156.531 284.407 156.171 288.23C155.811 292.053 154.756 292.764 153.176 291.064C151.597 289.365 144.278 290.45 144.278 290.45L148.935 255.156C149.169 253.38 148.809 251.578 147.911 250.029C147.012 248.48 145.626 247.272 143.969 246.594Z" fill="#F79F9F"/>
<path d="M301.947 340.752L302.194 334.066L276.523 329.933L276.159 339.8L301.947 340.752Z" fill="#FFB6B6"/>
<path d="M297.287 342.764L297.043 332.06L301.62 332.229L309.008 322.333C309.373 321.844 309.884 321.484 310.468 321.307C311.051 321.129 311.676 321.143 312.251 321.346C312.827 321.549 313.322 321.93 313.665 322.434C314.008 322.939 314.181 323.54 314.159 324.149L313.689 336.865L309.082 338.89L313.577 339.913L313.4 344.708L297.287 342.764Z" fill="#2F2E41"/>
<path d="M157.471 356.084L238.778 346.629C238.778 346.629 273.89 348.657 282.128 343.298L290.815 342.201L291.286 329.44C291.286 329.44 285.974 329.48 282.919 328.057C279.865 326.633 281.988 324.892 279.076 326.604C276.164 328.317 276.472 328.522 274.22 327.736C271.969 326.949 168.724 322.728 168.724 322.728L157.471 356.084Z" fill="#2F2E41"/>
<path d="M264.613 350.546L269.34 345.812L253.333 325.323L246.355 332.31L264.613 350.546Z" fill="#FFB6B6"/>
<path d="M259.828 348.853L266.93 340.84L270.17 344.076L282.316 341.846C282.916 341.736 283.536 341.82 284.084 342.087C284.633 342.353 285.082 342.789 285.365 343.329C285.649 343.869 285.753 344.485 285.661 345.088C285.57 345.691 285.288 346.249 284.857 346.681L275.864 355.684L271.109 354.035L273.709 357.842L270.319 361.236L259.828 348.853Z" fill="#2F2E41"/>
<path d="M125.393 311.554L126.201 330.344C127.153 352.463 151.512 365.851 170.402 354.302C170.75 354.089 171.099 353.868 171.45 353.64C171.45 353.64 178.611 351.717 178.393 348.672C178.176 345.626 179.925 344.144 181.473 344.975C183.022 345.805 203.292 317.038 203.292 317.038C203.292 317.038 245.406 338.046 254.697 342.991L264.5 340.32C264.5 340.32 268.19 342.062 266.861 339.542C265.532 337.022 265.293 338.229 264.885 335.483C264.477 332.737 263.432 329.333 262.799 329.476C262.166 329.619 210.698 293.596 210.698 293.596C210.698 293.596 202.313 285.111 191.913 290.713C191.696 291.536 191.881 291.565 191.881 291.565L157.523 319.561L152.668 310.342L125.393 311.554Z" fill="#2F2E41"/>
<path d="M148.485 242.515L133.754 235.611L129.343 243.285C129.343 243.285 117.498 260.187 117.327 272.382C117.155 284.576 119.257 288.202 119.257 288.202C119.257 288.202 114.15 292.02 116.703 294.354C119.257 296.688 124.91 297.695 120.568 298.707C116.226 299.718 117.327 309.961 122.176 311.78C127.025 313.598 153.066 313.582 153.066 313.582C152.832 312.788 152.815 311.946 153.017 311.143C153.218 310.34 153.631 309.605 154.212 309.015C156.231 306.992 158.049 308.444 156.231 305.293C154.412 302.143 151.382 303.961 153.806 299.718C156.231 295.475 156.23 294.208 156.23 294.208C156.23 294.208 161.172 284.801 153.728 274.596C153.274 273.974 153.655 273.95 153.655 273.95L147.644 253.805L148.485 242.515Z" fill="#F79F9F"/>
<path d="M124.745 213.485C124.87 216.596 122.909 221.005 121.943 223.663C120.911 226.505 125.385 230.278 128.25 231.104C128.399 230.119 128.89 229.219 129.637 228.56C129.43 229.499 129.412 230.469 129.584 231.414L153.797 236.926C158.153 231.882 162.533 224.63 161.578 215.884C161.807 214.223 161.54 212.531 160.811 211.022C160.082 209.512 158.923 208.251 157.48 207.398L145.239 200.166C140.032 198.981 133.475 198.265 129.714 201.487C128.034 202.982 126.714 204.838 125.853 206.916C124.993 208.994 124.614 211.239 124.745 213.485Z" fill="#2F2E41"/>
<path d="M146.389 234.262C154.088 234.262 160.329 228.02 160.329 220.321C160.329 212.622 154.088 206.38 146.389 206.38C138.689 206.38 132.448 212.622 132.448 220.321C132.448 228.02 138.689 234.262 146.389 234.262Z" fill="#FFB6B6"/>
<path d="M130.056 212.873L129.384 215.828L141.145 218.505C141.155 217.908 141.289 217.319 141.538 216.775C141.787 216.232 142.145 215.745 142.591 215.347C142.337 216.506 142.366 217.709 142.675 218.854C149.018 222.413 154.735 223.674 159.861 222.766C160.556 222.924 161.285 222.8 161.887 222.421C162.49 222.041 162.918 221.438 163.076 220.744C165.139 211.684 159.735 202.424 150.719 200.175C148.528 199.627 146.249 199.522 144.017 199.866C141.784 200.211 139.643 200.997 137.718 202.18C135.794 203.362 134.125 204.917 132.809 206.754C131.493 208.59 130.557 210.67 130.056 212.873Z" fill="#2F2E41"/>
<path d="M136.932 193.376C138.483 193.04 140.124 193.121 141.527 192.071L140.607 194.181C143.156 193.483 145.874 193.754 148.235 194.943C148.937 195.258 149.536 195.765 149.962 196.405C150.191 196.792 150.331 197.225 150.37 197.673C150.409 198.121 150.348 198.572 150.189 198.993C150.039 199.354 149.814 199.68 149.531 199.949C149.247 200.218 148.91 200.426 148.542 200.558C147.889 200.754 147.205 200.825 146.526 200.769C143.664 200.702 140.802 200.635 137.94 200.569C136.849 200.636 135.759 200.424 134.773 199.953C134.249 199.629 133.83 199.16 133.569 198.602C133.308 198.043 133.216 197.421 133.303 196.811C133.577 194.893 135.382 193.713 136.932 193.376Z" fill="#2F2E41"/>
<path d="M212.556 302.637C212.523 302.597 212.485 302.562 212.442 302.532C212.338 302.411 212.211 302.312 212.069 302.24L211.049 301.694L204.276 294.175C203.884 293.971 203.428 293.927 203.004 294.053L202.987 294.059L200.086 294.956L197.591 295.73L194.105 296.811L170.366 304.161L154.761 308.993C154.339 309.126 153.987 309.42 153.779 309.811C153.572 310.202 153.526 310.659 153.652 311.083C153.725 311.316 153.847 311.532 154.008 311.716L154.505 312.268L155.546 313.429L157.96 318.43L158.629 319.177C158.842 319.415 159.119 319.587 159.427 319.673C159.734 319.759 160.06 319.756 160.366 319.664L211.775 305.369C212.042 305.282 212.283 305.132 212.478 304.93C212.674 304.728 212.816 304.481 212.893 304.211C212.97 303.941 212.98 303.657 212.921 303.382C212.863 303.108 212.737 302.852 212.556 302.637Z" fill="#CCCCCC"/>
<path d="M209.504 228.262L208.508 228.423C208.235 228.468 207.991 228.62 207.83 228.844L207.391 229.458L203.435 239.351C203.274 239.577 203.209 239.858 203.255 240.132L203.718 242.95L201.966 293.262C202.011 293.522 202.15 293.757 202.358 293.919L210.04 304.195L210.219 304.337L210.606 304.64C210.804 304.793 211.05 304.871 211.301 304.861L211.954 304.83C212.102 304.823 212.247 304.784 212.379 304.717C212.511 304.649 212.628 304.554 212.721 304.439C212.815 304.324 212.883 304.191 212.92 304.047C212.958 303.904 212.964 303.754 212.939 303.608L210.71 229.123C210.665 228.849 210.513 228.604 210.288 228.443C210.063 228.281 209.782 228.216 209.509 228.261L209.504 228.262Z" fill="#CCCCCC"/>
<path d="M207.837 232.171L204.332 242.847L202.976 285.49L208.431 290.339L207.837 232.171Z" fill="#F79F9F"/>
<path d="M180.735 297.219C179.627 296.701 178.361 296.636 177.206 297.038C176.051 297.439 175.098 298.276 174.551 299.369C174.443 299.593 174.354 299.825 174.284 300.064L157.938 301.041L155.515 309.51L177.763 305.751C178.775 305.962 179.829 305.833 180.759 305.382C181.69 304.932 182.445 304.186 182.908 303.262C183.429 302.194 183.504 300.963 183.118 299.839C182.731 298.716 181.914 297.792 180.846 297.271C180.809 297.253 180.772 297.236 180.735 297.219Z" fill="#FFB6B6"/>
<path d="M144.653 255.445C143.575 255.004 142.416 254.8 141.253 254.848C140.09 254.895 138.951 255.192 137.913 255.719C136.876 256.246 135.963 256.99 135.239 257.901C134.515 258.812 133.995 259.869 133.715 260.998L129.221 279.148L130.066 310.899C130.066 310.899 153.525 315.4 157.463 312.507C161.401 309.613 161.031 307.459 161.401 309.613C161.771 311.767 163.461 312.671 163.484 311.814C163.508 310.957 163.699 311.104 164.68 310.846C165.662 310.588 169.993 308.991 169.993 308.991L170.187 299.939C170.187 299.939 163.026 297.224 161.289 298.034C159.552 298.844 161.659 300.188 159.552 298.844C157.445 297.5 157.215 293.258 156.855 297.081C156.494 300.904 155.44 301.616 153.86 299.916C152.28 298.216 144.962 299.302 144.962 299.302L149.619 264.007C149.853 262.232 149.493 260.429 148.594 258.88C147.696 257.331 146.31 256.123 144.653 255.445Z" fill="#F79F9F"/>
<path d="M3.19248e-06 360.731C-0.000279305 360.825 0.0181892 360.919 0.0543398 361.007C0.0904903 361.095 0.143615 361.174 0.210653 361.241C0.277692 361.308 0.357319 361.361 0.444962 361.398C0.532605 361.434 0.62653 361.452 0.721334 361.452H434.279C434.47 361.452 434.653 361.376 434.789 361.241C434.924 361.105 435 360.922 435 360.731C435 360.539 434.924 360.356 434.789 360.221C434.653 360.085 434.47 360.009 434.279 360.009H0.721297C0.626497 360.009 0.532581 360.027 0.444943 360.064C0.357306 360.1 0.277678 360.153 0.210644 360.22C0.14361 360.287 0.0904892 360.367 0.0543398 360.454C0.0181903 360.542 -0.000276064 360.636 3.19248e-06 360.731Z" fill="#CCCCCC"/>
<path d="M382.578 204.64H259.741C257.749 204.638 255.838 203.845 254.429 202.436C253.021 201.027 252.228 199.117 252.226 197.125V180.57C252.228 178.577 253.021 176.667 254.429 175.258C255.838 173.849 257.749 173.056 259.741 173.054H382.578C384.571 173.056 386.481 173.849 387.89 175.258C389.299 176.667 390.091 178.577 390.094 180.57V197.125C390.091 199.117 389.299 201.027 387.89 202.436C386.481 203.845 384.571 204.638 382.578 204.64Z" fill="#E6E6E6"/>
<path d="M336.083 186.014H299.891C299.461 186.014 299.049 185.843 298.746 185.539C298.442 185.236 298.271 184.824 298.271 184.395C298.271 183.965 298.442 183.553 298.746 183.25C299.049 182.946 299.461 182.775 299.891 182.775H336.083C336.513 182.775 336.925 182.946 337.228 183.25C337.532 183.553 337.703 183.965 337.703 184.395C337.703 184.824 337.532 185.236 337.228 185.539C336.925 185.843 336.513 186.014 336.083 186.014Z" fill="white"/>
<path d="M370.893 194.919H299.486C299.056 194.919 298.645 194.748 298.341 194.444C298.037 194.141 297.867 193.729 297.867 193.299C297.867 192.87 298.037 192.458 298.341 192.155C298.645 191.851 299.056 191.68 299.486 191.68H370.893C371.323 191.68 371.735 191.851 372.038 192.155C372.342 192.458 372.513 192.87 372.513 193.299C372.513 193.729 372.342 194.141 372.038 194.444C371.735 194.748 371.323 194.919 370.893 194.919Z" fill="white"/>
<path d="M280.663 199.702C286.658 199.702 291.518 194.842 291.518 188.847C291.518 182.852 286.658 177.992 280.663 177.992C274.668 177.992 269.807 182.852 269.807 188.847C269.807 194.842 274.668 199.702 280.663 199.702Z" fill="white"/>
<path d="M343.18 247.069H220.343C218.351 247.067 216.44 246.274 215.031 244.865C213.622 243.456 212.83 241.546 212.828 239.553V222.998C212.83 221.006 213.622 219.096 215.031 217.687C216.44 216.278 218.351 215.485 220.343 215.483H343.18C345.173 215.485 347.083 216.278 348.492 217.687C349.901 219.096 350.693 221.006 350.696 222.998V239.553C350.693 241.546 349.901 243.456 348.492 244.865C347.083 246.274 345.173 247.067 343.18 247.069Z" fill="#E6E6E6"/>
<path d="M296.685 228.442H260.493C260.063 228.442 259.651 228.272 259.348 227.968C259.044 227.664 258.873 227.253 258.873 226.823C258.873 226.394 259.044 225.982 259.348 225.678C259.651 225.375 260.063 225.204 260.493 225.204H296.685C297.115 225.204 297.527 225.375 297.83 225.678C298.134 225.982 298.305 226.394 298.305 226.823C298.305 227.253 298.134 227.664 297.83 227.968C297.527 228.272 297.115 228.442 296.685 228.442Z" fill="white"/>
<path d="M331.495 237.347H260.088C259.658 237.347 259.246 237.177 258.943 236.873C258.639 236.57 258.469 236.158 258.469 235.728C258.469 235.299 258.639 234.887 258.943 234.584C259.246 234.28 259.658 234.109 260.088 234.109H331.495C331.925 234.109 332.337 234.28 332.64 234.584C332.944 234.887 333.114 235.299 333.114 235.728C333.114 236.158 332.944 236.57 332.64 236.873C332.337 237.177 331.925 237.347 331.495 237.347Z" fill="white"/>
<path d="M241.264 242.131C247.26 242.131 252.12 237.271 252.12 231.276C252.12 225.281 247.26 220.421 241.264 220.421C235.269 220.421 230.409 225.281 230.409 231.276C230.409 237.271 235.269 242.131 241.264 242.131Z" fill="white"/>
</g>
<defs>
<linearGradient id="paint0_linear_102_1268" x1="222.967" y1="3.33509" x2="222.967" y2="356.708" gradientUnits="userSpaceOnUse">
<stop offset="0.403912" stop-color="white"/>
<stop offset="1" stop-color="#FFE1E1"/>
</linearGradient>
<clipPath id="clip0_102_1268">
<rect width="434.983" height="361.438" fill="white"/>
</clipPath>
</defs>
</svg>
